<svg xmlns="http://www.w3.org/2000/svg" version="1.1" xmlns:xlink="http://www.w3.org/1999/xlink" xmlns:svgjs="http://svgjs.dev/svgjs" width="1500" height="1500" viewBox="0 0 1500 1500"><rect width="1500" height="1500" fill="#2a766f"></rect><g transform="matrix(0.6666666666666666,0,0,0.6666666666666666,248.46358326829682,266.11075268817194)"><svg viewBox="0 0 257 248" data-background-color="#2a766f" preserveAspectRatio="xMidYMid meet" height="1447" width="1500" xmlns="http://www.w3.org/2000/svg" xmlns:xlink="http://www.w3.org/1999/xlink"><g id="tight-bounds" transform="matrix(1,0,0,1,0.39485910004771085,0.4000000000000057)"><svg viewBox="0 0 256.2102817999046 247.2" height="247.2" width="256.2102817999046"><g><svg viewBox="0 0 397.4975999999999 383.5185927344645" height="247.2" width="256.2102817999046"><g><rect width="397.4975999999999" height="6.799191399140402" x="0" y="215.71243545183773" fill="#000000" opacity="1" stroke-width="0" stroke="transparent" fill-opacity="1" class="rect-yte-0" data-fill-palette-color="primary" rx="1%" id="yte-0" data-palette-color="#000000"></rect></g><g transform="matrix(1,0,0,1,0.9887999999999693,240.31055721522003)"><svg viewBox="0 0 395.52 143.20803551924445" height="143.20803551924445" width="395.52"><g id="textblocktransform"><svg viewBox="0 0 395.52 143.20803551924445" height="143.20803551924445" width="395.52" id="textblock"><g><svg viewBox="0 0 395.52 75.394916739702" height="75.394916739702" width="395.52"><g transform="matrix(1,0,0,1,0,0)"><svg width="395.52" viewBox="0.7 -39.6 228.19 43.5" height="75.394916739702" data-palette-color="#000000"><path d="M39.7 3.9Q29.1 3.9 22.73 3.25 16.35 2.6 11.75 0.48 7.15-1.65 4.05-5.9L4.05-5.9Q0.7-10.75 0.7-19.45L0.7-19.45Q0.7-29.6 5.73-34.6 10.75-39.6 19.8-39.6L19.8-39.6Q28.8-39.6 33.85-35.18 38.9-30.75 38.9-21.95L38.9-21.95Q38.9-18.15 37.68-14.83 36.45-11.5 33.45-8.7L33.45-8.7 33.7-8.2 39.7-8.2 39.7 3.9ZM19.8-8.2Q23.2-8.2 23.2-11.9L23.2-11.9 23.2-27Q23.2-30.7 19.8-30.7L19.8-30.7Q16.4-30.7 16.4-27L16.4-27 16.4-11.9Q16.4-8.2 19.8-8.2L19.8-8.2ZM72.1-8.2L74.3-8.2 74.3 0 60.6 0 60.6-3.9Q57 0.7 51.6 0.7L51.6 0.7Q47.45 0.7 45.37-1.9 43.3-4.5 43.3-9.05L43.3-9.05 43.3-19.6 41.1-19.6 41.1-27.8 54.8-27.8 54.8-11.4Q54.8-9.75 55.52-8.97 56.25-8.2 57.7-8.2L57.7-8.2Q59.15-8.2 59.87-8.97 60.6-9.75 60.6-11.4L60.6-11.4 60.6-19.6 57.9-19.6 57.9-27.8 72.1-27.8 72.1-8.2ZM88.3-30.55L78.1-30.55 78.1-38.9 88.3-38.9 88.3-30.55ZM91.6 0L75.7 0 75.7-8.2 77.9-8.2 77.9-19.6 75.7-19.6 75.7-27.8 89.4-27.8 89.4-8.2 91.6-8.2 91.6 0ZM107.94 0.7Q100.79 0.7 96.79-3.03 92.79-6.75 92.79-13.9L92.79-13.9Q92.79-21.05 96.79-24.78 100.79-28.5 107.89-28.5L107.89-28.5Q111.34-28.5 114.49-27.55 117.64-26.6 119.39-25.4L119.39-25.4 119.39-15.5 110.79-15.5 110.79-16.4Q110.79-18.05 110.09-18.82 109.39-19.6 107.89-19.6L107.89-19.6Q104.99-19.6 104.99-16.4L104.99-16.4 104.99-12.1Q104.99-8.2 109.44-8.2L109.44-8.2Q113.59-8.2 119.09-9.1L119.09-9.1 119.09-1.25Q117.39-0.5 114.32 0.1 111.24 0.7 107.94 0.7L107.94 0.7ZM146.44-14.85L151.24-8.2 153.39-8.2 153.39 0 141.14 0 135.99-9.6 134.79-9.6 134.79 0 121.09 0 121.09-8.2 123.29-8.2 123.29-30.7 121.09-30.7 121.09-38.9 134.79-38.9 134.79-18.6 135.99-18.6 142.19-27.8 152.74-27.8 152.74-19.6 150.69-19.6 146.44-14.85ZM174.49 0.7Q165.04 0.7 159.91-4.1 154.79-8.9 154.79-19.45L154.79-19.45Q154.79-39.6 174.39-39.6L174.39-39.6Q179.14-39.6 183.21-38.45 187.29-37.3 189.29-35.9L189.29-35.9 189.29-23.4 177.29-23.4 177.29-27Q177.29-28.9 176.44-29.8 175.59-30.7 173.89-30.7L173.89-30.7Q172.19-30.7 171.34-29.8 170.49-28.9 170.49-27L170.49-27 170.49-11.9Q170.49-10 171.34-9.1 172.19-8.2 173.89-8.2L173.89-8.2Q175.59-8.2 176.44-9.1 177.29-10 177.29-11.9L177.29-11.9 177.29-15.95 189.29-15.95 189.29-3Q187.24-1.6 183.21-0.45 179.19 0.7 174.49 0.7L174.49 0.7ZM212.19-30.7L212.19-38.9 228.89-38.9 228.89-30.7 226.89-30.7 217.94 0 201.74 0 192.79-30.7 190.79-30.7 190.79-38.9 209.99-38.9 209.99-30.7 207.39-30.7 210.84-13.95 211.34-13.95 214.79-30.7 212.19-30.7Z" opacity="1" transform="matrix(1,0,0,1,0,0)" fill="#000000" class="wordmark-text-0" data-fill-palette-color="primary" id="text-0"></path></svg></g></svg></g><g transform="matrix(1,0,0,1,75.54432,93.19384710394388)"><svg viewBox="0 0 244.43135999999998 50.014188415300545" height="50.014188415300545" width="244.43135999999998"><g transform="matrix(1,0,0,1,0,0)"><svg width="244.43135999999998" viewBox="1.8 -37.95 247.03 50.550000000000004" height="50.014188415300545" data-palette-color="#0e060d"><path d="M9.65 0.5Q7.55 0.5 5.4-0.03 3.25-0.55 1.8-1.8L1.8-1.8 4.05-6.95Q4.95-5.9 6.08-5.38 7.2-4.85 8.85-4.85L8.85-4.85Q10.4-4.85 11.35-5.4 12.3-5.95 12.78-7.4 13.25-8.85 13.25-11.55L13.25-11.55 13.25-36.75 18.8-36.75 18.8-10.15Q18.8-4.55 16.28-2.02 13.75 0.5 9.65 0.5L9.65 0.5ZM37.3 0.5Q33.75 0.5 31-1.1 28.25-2.7 26.75-5.45 25.25-8.2 25.25-11.55L25.25-11.55Q25.25-14.85 26.72-17.6 28.2-20.35 30.95-21.95 33.7-23.55 37.3-23.55L37.3-23.55Q40.9-23.55 43.62-21.95 46.35-20.35 47.82-17.6 49.3-14.85 49.3-11.55L49.3-11.55Q49.3-8.2 47.8-5.45 46.3-2.7 43.57-1.1 40.85 0.5 37.3 0.5L37.3 0.5ZM37.45-3.9Q40.35-3.9 42.02-6.05 43.7-8.2 43.7-11.45L43.7-11.45Q43.7-14.7 41.9-16.93 40.1-19.15 37.15-19.15L37.15-19.15Q34.3-19.15 32.57-16.95 30.85-14.75 30.85-11.45L30.85-11.45Q30.85-8.25 32.7-6.08 34.55-3.9 37.45-3.9L37.45-3.9ZM68.65 0.5Q65.84 0.5 63.62-0.88 61.4-2.25 60.55-4.05L60.55-4.05 60.45 0 55.25 0 55.25-36.75 60.55-36.75 60.55-22.6 60.3-18.7Q61.15-20.7 63.62-22.13 66.09-23.55 69-23.55L69-23.55Q72.4-23.55 74.92-22.03 77.45-20.5 78.8-17.78 80.15-15.05 80.15-11.45L80.15-11.45Q80.15-7.8 78.57-5.1 77-2.4 74.37-0.95 71.75 0.5 68.65 0.5L68.65 0.5ZM67.75-4Q71-4 72.75-6.08 74.5-8.15 74.5-11.45L74.5-11.45Q74.5-14.8 72.77-16.88 71.05-18.95 67.75-18.95L67.75-18.95Q64.9-18.95 62.95-16.98 61-15 61-11.8L61-11.8 61-11.45Q61-9.3 61.92-7.6 62.85-5.9 64.37-4.95 65.9-4 67.75-4L67.75-4ZM123.29 0L116.84 0 109.44-13.9Q107.14-13.8 105.34-13.8L105.34-13.8 103.94-13.8 103.94 0 98.49 0 98.49-36.75 106.84-36.75Q113.19-36.75 117.29-34.13 121.39-31.5 121.39-25.6L121.39-25.6Q121.39-21.9 119.67-19.23 117.94-16.55 114.54-15.1L114.54-15.1 123.29 0ZM103.94-18.35L107.49-18.35Q112.39-18.35 114.22-20.48 116.04-22.6 116.04-25.55L116.04-25.55Q116.04-32.1 107.29-32.1L107.29-32.1 103.94-32.1 103.94-18.35ZM139.49 0.5Q135.39 0.5 132.64-1.13 129.89-2.75 128.59-5.48 127.29-8.2 127.29-11.45L127.29-11.45Q127.29-15.1 128.81-17.85 130.34-20.6 133.04-22.08 135.74-23.55 139.14-23.55L139.14-23.55Q144.44-23.55 147.01-20.63 149.59-17.7 149.59-12.4L149.59-12.4Q149.59-11.05 149.44-9.6L149.44-9.6 132.94-9.6Q133.49-6.55 135.11-5.2 136.74-3.85 139.64-3.85L139.64-3.85Q142.04-3.85 143.59-4.25 145.14-4.65 146.44-5.35L146.44-5.35 148.09-1.5Q146.84-0.7 144.69-0.1 142.54 0.5 139.49 0.5L139.49 0.5ZM132.94-13.35L144.34-13.35Q144.39-16.45 142.99-17.73 141.59-19 138.99-19L138.99-19Q133.74-19 132.94-13.35L132.94-13.35ZM165.38 0.5Q162.28 0.5 159.66-0.98 157.03-2.45 155.46-5.18 153.88-7.9 153.88-11.55L153.88-11.55Q153.88-15.15 155.26-17.85 156.63-20.55 159.19-22.05 161.74-23.55 165.19-23.55L165.19-23.55Q167.19-23.55 168.94-22.85 170.69-22.15 171.88-21.13 173.09-20.1 173.49-19.1L173.49-19.1 173.59-22.95 178.74-22.95 178.74 0 173.63 0 173.53-4.05Q172.69-2.25 170.44-0.88 168.19 0.5 165.38 0.5L165.38 0.5ZM166.28-4Q169.13-4 171.09-5.98 173.03-7.95 173.03-11.15L173.03-11.15 173.03-11.5Q173.03-13.65 172.13-15.35 171.24-17.05 169.69-18 168.13-18.95 166.28-18.95L166.28-18.95Q163.09-18.95 161.34-16.88 159.59-14.8 159.59-11.5L159.59-11.5Q159.59-8.15 161.31-6.08 163.03-4 166.28-4L166.28-4ZM196.13 0.5Q193.03 0.5 190.41-0.98 187.78-2.45 186.21-5.18 184.63-7.9 184.63-11.55L184.63-11.55Q184.63-17 187.68-20.28 190.73-23.55 195.93-23.55L195.93-23.55Q198.83-23.55 201.23-22.13 203.63-20.7 204.48-18.7L204.48-18.7 204.23-22.6 204.23-36.75 209.53-36.75 209.53 0 204.38 0 204.28-4.05Q203.43-2.25 201.18-0.88 198.93 0.5 196.13 0.5L196.13 0.5ZM197.03-4.05Q199.88-4.05 201.83-6.03 203.78-8 203.78-11.2L203.78-11.2 203.78-11.55Q203.78-13.7 202.88-15.4 201.98-17.1 200.43-18.05 198.88-19 197.03-19L197.03-19Q193.83-19 192.08-16.93 190.33-14.85 190.33-11.55L190.33-11.55Q190.33-8.2 192.06-6.13 193.78-4.05 197.03-4.05L197.03-4.05ZM218.33 12.6L223.28 0.7 213.78-22.95 219.88-22.95 224.78-8.35 225.88-4.8 226.98-8.35 232.13-22.95 238.03-22.95 223.93 12.6 218.33 12.6ZM243.08-13.05L242.13-37.95 248.53-37.95 247.58-13.05 243.08-13.05ZM245.23 0.55Q243.73 0.55 242.68-0.48 241.63-1.5 241.63-3.05L241.63-3.05Q241.63-4.55 242.65-5.6 243.68-6.65 245.23-6.65L245.23-6.65Q246.78-6.65 247.8-5.6 248.83-4.55 248.83-3.05L248.83-3.05Q248.83-1.5 247.8-0.48 246.78 0.55 245.23 0.55L245.23 0.55Z" opacity="1" transform="matrix(1,0,0,1,0,0)" fill="#0e060d" class="slogan-text-1" data-fill-palette-color="secondary" id="text-1"></path></svg></g></svg></g></svg></g></svg></g><g transform="matrix(1,0,0,1,108.62203712442648,0)"><svg viewBox="0 0 180.25352575114695 197.91350508759584" height="197.91350508759584" width="180.25352575114695"><g><svg xmlns="http://www.w3.org/2000/svg" xmlns:xlink="http://www.w3.org/1999/xlink" version="1.1" x="0" y="0" viewBox="9.4 5.6 81.51384387633061 89.5" style="enable-background:new 0 0 100 100;" xml:space="preserve" height="197.91350508759584" width="180.25352575114695" class="icon-icon-0" data-fill-palette-color="accent" id="icon-0"><path d="M56.8 83.2L54.9 79.9C54.7 79.5 54.6 79.1 54.6 78.7S54.7 77.9 54.9 77.5L56.8 74.2V70.2C56.8 69.3 57.3 68.5 58 68.1L61.4 66.1 63.3 62.8C63.7 62.1 64.5 61.6 65.4 61.6H69.3L72.7 59.7C73.4 59.3 74.4 59.3 75.1 59.7L78 61.4C75.2 55.8 69.5 52 62.7 52H26.5C17.2 52 9.4 59.5 9.4 69.1V84.9H56.7V83.2z" fill="#fff2ff" data-fill-palette-color="accent"></path><path d="M44.6 5.6C33.8 5.6 25 14.4 25 25.2S33.8 44.8 44.6 44.8 64.2 36 64.2 25.2 55.4 5.6 44.6 5.6" fill="#fff2ff" data-fill-palette-color="accent"></path><rect x="72.5" y="72.5" width="4" height="1.3" fill="#fff2ff" data-fill-palette-color="accent"></rect><path d="M90.6 77.6L89 74.7V71.5C89 70.8 88.6 70.1 88 69.7L85.2 68.1 83.5 65.2C83.1 64.6 82.5 64.2 81.7 64.2H78.4L75.5 62.6C74.9 62.2 74.1 62.2 73.5 62.6L70.6 64.2H67.3C66.6 64.2 65.9 64.6 65.5 65.2L64 68 61 69.7C60.4 70.1 60 70.7 60 71.5V74.9L58.4 77.7C58.2 78 58.1 78.4 58.1 78.7 58.1 79.1 58.2 79.4 58.4 79.7L60 82.5V85.9C60 86.6 60.4 87.3 61 87.7L63.9 89.4 65.5 92.2C65.9 92.8 66.5 93.2 67.3 93.2H70.6L73.5 94.8C73.8 95 74.2 95.1 74.5 95.1S75.2 95 75.5 94.8L78.4 93.2H81.7C82.4 93.2 83.1 92.8 83.5 92.2L85.2 89.3 88 87.7C88.6 87.3 89 86.7 89 85.9V82.7L90.7 79.8C91 79 91 78.2 90.6 77.6M82.8 84.4C82.8 84.9 82.4 85.3 81.9 85.3H67.2C66.7 85.3 66.3 84.9 66.3 84.4V74.8C66.3 74.3 66.7 73.9 67.2 73.9H71.3V72C71.3 71.7 71.6 71.4 71.9 71.4H77.1C77.4 71.4 77.7 71.7 77.7 72V73.9H81.8C82.3 73.9 82.7 74.3 82.7 74.8V84.4z" fill="#fff2ff" data-fill-palette-color="accent"></path></svg></g></svg></g><g></g></svg></g><defs></defs></svg><rect width="256.2102817999046" height="247.2" fill="none" stroke="none" visibility="hidden"></rect></g></svg></g></svg>